<svg width="395" height="64" viewBox="0 0 395 64" fill="none" xmlns="http://www.w3.org/2000/svg">
<path d="M38.04 13.44C38.12 13.3867 38.4533 13.36 39.04 13.36C39.68 13.36 40.04 13.4267 40.12 13.56C40.1733 13.6133 40.4267 17.9467 40.88 26.56C41.3067 35.1467 41.5467 39.4667 41.6 39.52C41.68 39.6 41.76 39.64 41.84 39.64C42.1333 39.72 42.8133 39.76 43.88 39.76C44.3867 39.76 44.6667 39.7867 44.72 39.84C44.88 39.8933 44.96 40.0133 44.96 40.2L44.56 41.76C44.4533 41.92 44.1867 41.9867 43.76 41.96C43.6533 41.96 43.4267 41.96 43.08 41.96C41.2667 41.8533 38.84 41.84 35.8 41.92C35.5333 41.9467 35.3067 41.96 35.12 41.96C34.24 41.9867 33.7467 41.92 33.64 41.76C33.5867 41.68 33.6133 41.3733 33.72 40.84C33.8533 40.28 33.9733 39.9467 34.08 39.84C34.16 39.7867 34.3733 39.76 34.72 39.76C35.8133 39.76 36.5733 39.6533 37 39.44L37.2 39.36V39.04L37.04 36.56C36.9867 35.0933 36.9467 34.3333 36.92 34.28V34.16H32.84H28.72L27.6 36.2C26.8267 37.5867 26.4133 38.4 26.36 38.64C26.2267 39.0933 26.5467 39.4267 27.32 39.64C27.5333 39.6933 27.7733 39.7333 28.04 39.76C28.4133 39.76 28.64 39.8533 28.72 40.04C28.7467 40.1733 28.6933 40.48 28.56 40.96C28.4533 41.4667 28.3467 41.7733 28.24 41.88L28.12 42H27.6C25.2267 41.8667 22.8267 41.8533 20.4 41.96C19.8133 41.9867 19.48 41.92 19.4 41.76C19.3467 41.68 19.3733 41.3733 19.48 40.84C19.64 40.2267 19.7867 39.8933 19.92 39.84C20 39.8133 20.2 39.7867 20.52 39.76C22.2267 39.68 23.4533 39.1067 24.2 38.04C24.36 37.8267 26.64 33.72 31.04 25.72L37.72 13.64C37.8267 13.56 37.9333 13.4933 38.04 13.44ZM36.56 26.44C36.3467 22.7067 36.24 20.8267 36.24 20.8V20.56L33.08 26.24L29.96 31.88L33.36 31.92C35.6533 31.92 36.8 31.9067 36.8 31.88L36.56 26.44ZM54.4066 24.4C54.5932 24.3467 54.8866 24.32 55.2866 24.32C55.8999 24.3467 56.4332 24.48 56.8866 24.72C57.2332 24.9067 57.4999 25.1067 57.6866 25.32C57.8999 25.5067 58.0999 25.7733 58.2866 26.12C58.5266 26.6267 58.6332 27.16 58.6066 27.72C58.6066 28.2533 58.4332 28.9867 58.0866 29.92C58.0599 30.0533 58.0066 30.2133 57.9266 30.4C56.6199 34.0267 55.9666 36.5067 55.9666 37.84C55.9666 37.9467 55.9666 38.04 55.9666 38.12C55.9932 39.0267 56.2066 39.6933 56.6066 40.12C56.8999 40.3867 57.2999 40.52 57.8066 40.52C58.3399 40.52 58.8066 40.4133 59.2066 40.2C59.8999 39.8533 60.4999 39.2933 61.0066 38.52L61.2466 38.12L62.7266 32.2C63.7666 28.0667 64.3666 25.88 64.5266 25.64C64.5532 25.5867 64.6199 25.5067 64.7266 25.4C65.3132 24.8133 65.9799 24.6133 66.7266 24.8C67.3666 25.0133 67.7132 25.4267 67.7666 26.04C67.7666 26.2267 67.0999 29.0133 65.7666 34.4C64.4599 39.6267 63.7266 42.48 63.5666 42.96C63.2999 43.84 62.8866 44.6667 62.3266 45.44C62.1399 45.76 61.9266 46.0667 61.6866 46.36C61.1532 47.0267 60.5799 47.6 59.9666 48.08C58.8199 49.04 57.5932 49.6667 56.2866 49.96C55.8066 50.0933 55.2066 50.16 54.4866 50.16C53.9266 50.16 53.5132 50.1333 53.2466 50.08C51.4599 49.68 50.4466 48.72 50.2066 47.2C50.1266 46.5333 50.2199 45.88 50.4866 45.24C50.9132 44.36 51.6332 43.8667 52.6466 43.76C53.4999 43.68 54.0866 43.9867 54.4066 44.68C54.4866 44.8133 54.5399 45.0267 54.5666 45.32C54.5932 46.0133 54.3399 46.6533 53.8066 47.24C53.5666 47.4267 53.3799 47.56 53.2466 47.64C53.1399 47.6933 53.0732 47.7333 53.0466 47.76L53.7266 48.16C54.8199 48.5333 55.9266 48.32 57.0466 47.52C58.4332 46.48 59.4866 44.7467 60.2066 42.32C60.2599 42.0267 60.3132 41.8267 60.3666 41.72V41.56L60.0466 41.72C58.7666 42.4667 57.3532 42.64 55.8066 42.24C54.0466 41.8133 52.9666 40.6667 52.5666 38.8C52.4599 38.1067 52.4599 37.28 52.5666 36.32C52.5932 36.24 52.6066 36.1733 52.6066 36.12C52.8199 34.7867 53.4466 32.7467 54.4866 30C54.9666 28.5867 55.2332 27.68 55.2866 27.28C55.4199 26.6667 55.3532 26.32 55.0866 26.24C54.7666 26.1333 54.3932 26.2 53.9666 26.44C53.4066 26.7867 52.9666 27.3333 52.6466 28.08C52.3799 28.56 52.0866 29.3733 51.7666 30.52C51.6866 30.68 51.6332 30.7733 51.6066 30.8C51.5532 30.8533 51.2332 30.88 50.6466 30.88H49.7666L49.6466 30.76C49.5666 30.68 49.5266 30.5733 49.5266 30.44C49.5799 30.0133 49.8066 29.3467 50.2066 28.44C50.5266 27.7467 50.8599 27.1733 51.2066 26.72C51.5532 26.24 51.9932 25.76 52.5266 25.28C53.1132 24.8267 53.7399 24.5333 54.4066 24.4ZM80.0197 24.36C80.073 24.3333 80.353 24.32 80.8597 24.32C81.5797 24.3467 82.2197 24.4533 82.7797 24.64C84.993 25.3867 86.3664 27 86.8997 29.48C86.953 29.8 86.9797 30.3067 86.9797 31C87.0064 31.88 86.9264 32.68 86.7397 33.4C86.3664 34.8933 85.7264 36.28 84.8197 37.56C83.1664 39.88 81.0997 41.4 78.6197 42.12C77.953 42.3067 77.2997 42.4133 76.6597 42.44C74.3664 42.52 72.6064 41.6933 71.3797 39.96C71.2197 39.7733 71.0864 39.5733 70.9797 39.36C69.6997 37.0667 69.7397 34.3733 71.0997 31.28C71.7397 29.8933 72.593 28.6667 73.6597 27.6C74.673 26.5867 75.7264 25.8267 76.8197 25.32C77.8864 24.7867 78.953 24.4667 80.0197 24.36ZM81.2597 26.28C80.6997 26.2 80.2464 26.1867 79.8997 26.24C78.593 26.48 77.513 27.12 76.6597 28.16C75.8864 29.0933 75.2197 30.6533 74.6597 32.84C74.6064 33.0267 74.553 33.2133 74.4997 33.4C74.073 35.16 73.8597 36.4667 73.8597 37.32C73.8597 37.88 73.8864 38.2533 73.9397 38.44C74.2597 39.6933 75.033 40.3867 76.2597 40.52C76.793 40.5733 77.353 40.5067 77.9397 40.32C79.353 39.8667 80.473 38.84 81.2997 37.24C81.753 36.4133 82.2064 35.0533 82.6597 33.16C83.2464 30.84 83.4064 29.1867 83.1397 28.2C82.873 27.2133 82.2464 26.5733 81.2597 26.28ZM94.2894 24.4C94.476 24.3467 94.7694 24.32 95.1694 24.32C95.7827 24.3467 96.316 24.48 96.7694 24.72C97.116 24.9067 97.3827 25.1067 97.5694 25.32C97.7827 25.5067 97.9827 25.7733 98.1694 26.12C98.4094 26.6267 98.516 27.16 98.4894 27.72C98.4894 28.2533 98.316 28.9867 97.9694 29.92C97.9427 30.0533 97.8894 30.2133 97.8094 30.4C96.5027 34.0267 95.8494 36.5067 95.8494 37.84C95.8494 37.9467 95.8494 38.04 95.8494 38.12C95.876 39.0267 96.0894 39.6933 96.4894 40.12C96.7827 40.3867 97.1827 40.52 97.6894 40.52C98.2227 40.52 98.6894 40.4133 99.0894 40.2C99.7827 39.8533 100.383 39.2933 100.889 38.52L101.129 38.12L102.609 32.2C103.649 28.0667 104.249 25.88 104.409 25.64C104.436 25.5867 104.503 25.5067 104.609 25.4C105.196 24.8133 105.863 24.6133 106.609 24.8C107.249 25.0133 107.596 25.4267 107.649 26.04C107.649 26.2533 107.169 28.3067 106.209 32.2C105.276 35.8533 104.756 37.96 104.649 38.52C104.543 39.2667 104.529 39.7867 104.609 40.08C104.663 40.1867 104.729 40.2933 104.809 40.4C104.889 40.4533 105.023 40.5067 105.209 40.56C105.369 40.56 105.503 40.52 105.609 40.44C106.169 40.0933 106.703 38.8667 107.209 36.76C107.369 36.2267 107.503 35.9467 107.609 35.92C107.689 35.8933 107.983 35.88 108.489 35.88C109.076 35.88 109.409 35.9067 109.489 35.96C109.543 36.0133 109.569 36.12 109.569 36.28C109.569 36.6533 109.356 37.4133 108.929 38.56C108.609 39.44 108.276 40.12 107.929 40.6C107.183 41.7467 106.249 42.36 105.129 42.44C103.769 42.4933 102.689 42.0267 101.889 41.04L101.609 40.68C101.556 40.6 101.529 40.5467 101.529 40.52L101.249 40.8C100.263 41.7067 99.1827 42.24 98.0094 42.4C96.8627 42.5333 95.8227 42.3867 94.8894 41.96C93.5827 41.4 92.7694 40.3467 92.4494 38.8C92.3427 38.1067 92.3427 37.28 92.4494 36.32C92.476 36.24 92.4894 36.1733 92.4894 36.12C92.7027 34.7867 93.3294 32.7467 94.3694 30C94.8494 28.5867 95.116 27.68 95.1694 27.28C95.3027 26.6667 95.236 26.32 94.9694 26.24C94.6494 26.1333 94.276 26.2 93.8494 26.44C93.2894 26.7867 92.8494 27.3333 92.5294 28.08C92.2627 28.56 91.9694 29.3733 91.6494 30.52C91.5694 30.68 91.516 30.7733 91.4894 30.8C91.436 30.8533 91.116 30.88 90.5294 30.88H89.6494L89.5294 30.76C89.4494 30.68 89.4094 30.5733 89.4094 30.44C89.4627 30.0133 89.6894 29.3467 90.0894 28.44C90.4094 27.7467 90.7427 27.1733 91.0894 26.72C91.436 26.24 91.876 25.76 92.4094 25.28C92.996 24.8267 93.6227 24.5333 94.2894 24.4ZM117.214 14.48C119.294 14.32 120.32 14.24 120.294 14.24C120.534 14.24 120.694 14.3333 120.774 14.52C120.8 14.6267 120.36 16.4933 119.454 20.12L118.094 25.6L118.494 25.36C119.667 24.64 120.787 24.2933 121.854 24.32C123.56 24.4 124.867 25.1333 125.774 26.52C126.2 27.16 126.534 27.92 126.774 28.8C127.04 30.16 127.014 31.5467 126.694 32.96C126.294 35.04 125.427 36.9067 124.094 38.56C123.534 39.28 122.947 39.88 122.334 40.36C121.16 41.3467 119.867 42 118.454 42.32C118.214 42.3733 117.84 42.4 117.334 42.4C116.827 42.4 116.44 42.3733 116.174 42.32C115.614 42.1867 115.067 41.9333 114.534 41.56C113.867 41.08 113.36 40.48 113.014 39.76C112.64 38.9867 112.387 38.1467 112.254 37.24C112.174 36.52 112.187 35.6533 112.294 34.64C112.347 34.24 113.067 31.2667 114.454 25.72C115.814 20.28 116.44 17.4533 116.334 17.24C116.147 17.0533 115.574 16.9467 114.614 16.92C113.974 16.92 113.6 16.8267 113.494 16.64L113.454 16.52L113.654 15.72C113.76 15.2133 113.867 14.9067 113.974 14.8C114.054 14.72 114.134 14.68 114.214 14.68L117.214 14.48ZM121.974 26.32C121.734 26.2133 121.347 26.1867 120.814 26.24C120.04 26.4533 119.254 26.9733 118.454 27.8C118.027 28.2267 117.627 28.7333 117.254 29.32C117.2 29.3733 116.947 30.24 116.494 31.92L115.734 35C115.2 37.5067 115.347 39.16 116.174 39.96C116.414 40.2267 116.707 40.4 117.054 40.48C117.907 40.72 118.8 40.4133 119.734 39.56C120.587 38.84 121.28 37.5867 121.814 35.8C122 35.1867 122.214 34.4 122.454 33.44C123.014 31.1733 123.294 29.6133 123.294 28.76C123.294 28.2 123.227 27.76 123.094 27.44C122.907 26.9067 122.534 26.5333 121.974 26.32ZM130.572 31.84C130.652 31.7867 132.226 31.76 135.292 31.76H139.892L140.052 31.88C140.132 32.0133 140.172 32.12 140.172 32.2L139.492 34.8L139.332 34.96C139.279 34.9867 137.732 35 134.692 35C131.572 35 129.972 34.9333 129.892 34.8C129.839 34.7467 129.812 34.6667 129.812 34.56L130.412 32.04C130.439 31.9867 130.492 31.92 130.572 31.84ZM157.108 13.88C157.908 13.7467 158.735 13.7733 159.588 13.96C160.388 14.12 161.095 14.4 161.708 14.8C162.028 15.0133 162.401 15.36 162.828 15.84C162.908 15.9733 162.961 16.0533 162.988 16.08L164.068 14.96C164.815 14.2133 165.201 13.84 165.228 13.84C165.228 13.8133 165.348 13.8 165.588 13.8C165.881 13.8 166.068 13.88 166.148 14.04C166.175 14.1467 165.801 15.7467 165.028 18.84C164.228 21.9867 163.801 23.5867 163.748 23.64L163.628 23.76H162.788C162.095 23.76 161.721 23.6933 161.668 23.56C161.641 23.4533 161.655 23.2267 161.708 22.88C162.135 20.08 161.788 18.12 160.668 17C160.055 16.36 159.175 16 158.028 15.92C156.721 15.8933 155.535 16.4133 154.468 17.48C153.908 18.04 153.481 18.6133 153.188 19.2C152.708 20.2133 152.481 21.1867 152.508 22.12C152.535 22.7333 152.641 23.2133 152.828 23.56C153.095 24.12 153.468 24.52 153.948 24.76C154.001 24.7867 154.855 25.0533 156.508 25.56C158.348 26.0933 159.441 26.4667 159.788 26.68C161.495 27.6667 162.375 29.3867 162.428 31.84C162.455 33.7867 161.908 35.7333 160.788 37.68C159.935 39.2 158.775 40.4533 157.308 41.44C156.295 42.1067 155.241 42.5467 154.148 42.76C153.881 42.8133 153.441 42.84 152.828 42.84C151.921 42.84 151.148 42.76 150.508 42.6C149.201 42.2533 148.148 41.6667 147.348 40.84L147.028 40.52L145.948 41.64L144.788 42.84L144.388 42.88H144.348C144.135 42.88 143.988 42.84 143.908 42.76C143.828 42.68 143.788 42.6133 143.788 42.56C143.788 42.48 144.561 39.3467 146.108 33.16C146.295 33 146.668 32.92 147.228 32.92H148.068L148.188 33.04C148.295 33.1467 148.308 33.4133 148.228 33.84C148.228 33.8933 148.215 33.96 148.188 34.04C147.868 35.6133 147.948 36.9333 148.428 38C148.988 39.3867 150.161 40.2267 151.948 40.52C152.721 40.6533 153.335 40.68 153.788 40.6C155.201 40.36 156.428 39.4133 157.468 37.76C157.868 37.12 158.175 36.44 158.388 35.72C158.548 35.1333 158.628 34.48 158.628 33.76C158.628 33.0667 158.548 32.5333 158.388 32.16C158.121 31.4933 157.721 31.04 157.188 30.8C157.001 30.6933 156.135 30.4133 154.588 29.96C152.988 29.5067 152.041 29.2133 151.748 29.08C151.215 28.8133 150.721 28.4533 150.268 28C149.095 26.7733 148.588 25.1733 148.748 23.2C148.908 21.28 149.615 19.4533 150.868 17.72C151.535 16.8933 152.241 16.2 152.988 15.64C154.321 14.6267 155.695 14.04 157.108 13.88ZM174.009 17.04C174.382 16.9067 174.769 16.92 175.169 17.08C175.516 17.2133 175.769 17.44 175.929 17.76C176.062 18.0533 176.022 18.6133 175.809 19.44C175.729 19.7867 175.556 20.52 175.289 21.64C174.729 23.6933 174.462 24.7067 174.489 24.68C174.489 24.7333 175.062 24.76 176.209 24.76H177.929L178.049 24.88C178.209 24.9867 178.209 25.3333 178.049 25.92C177.969 26.32 177.889 26.6 177.809 26.76C177.729 26.8933 177.476 26.9733 177.049 27C176.862 27 176.422 27 175.729 27H173.929L173.889 27.16C172.102 34.12 171.169 37.9067 171.089 38.52C171.036 38.84 171.009 39.1333 171.009 39.4C171.009 40.1467 171.222 40.5333 171.649 40.56C171.809 40.56 171.996 40.5333 172.209 40.48C172.582 40.4533 172.982 40.2667 173.409 39.92C174.342 39.2 175.116 38.04 175.729 36.44C175.862 36.12 176.009 35.9467 176.169 35.92C176.249 35.8933 176.516 35.88 176.969 35.88C177.556 35.88 177.876 35.9067 177.929 35.96C178.089 36.0933 178.089 36.36 177.929 36.76C177.422 37.9867 176.822 39 176.129 39.8C175.062 41.16 173.836 42 172.449 42.32C172.236 42.3733 171.889 42.4 171.409 42.4C170.929 42.4 170.596 42.3733 170.409 42.32C169.662 42.1067 169.062 41.7867 168.609 41.36C168.182 40.9333 167.876 40.4133 167.689 39.8C167.636 39.5867 167.609 39.2267 167.609 38.72V37.96L168.969 32.52C169.876 28.9467 170.329 27.12 170.329 27.04C170.329 27.0133 169.769 27 168.649 27C167.476 27 166.836 26.9067 166.729 26.72C166.676 26.64 166.702 26.3467 166.809 25.84C166.969 25.3067 167.062 25.0267 167.089 25C167.169 24.84 167.449 24.76 167.929 24.76C168.116 24.76 168.516 24.76 169.129 24.76H170.929L171.689 21.64C172.196 19.5867 172.516 18.4267 172.649 18.16C172.889 17.6267 173.342 17.2533 174.009 17.04ZM190.41 24.36C190.464 24.3333 190.744 24.32 191.25 24.32C191.97 24.3467 192.61 24.4533 193.17 24.64C195.384 25.3867 196.757 27 197.29 29.48C197.344 29.8 197.37 30.3067 197.37 31C197.397 31.88 197.317 32.68 197.13 33.4C196.757 34.8933 196.117 36.28 195.21 37.56C193.557 39.88 191.49 41.4 189.01 42.12C188.344 42.3067 187.69 42.4133 187.05 42.44C184.757 42.52 182.997 41.6933 181.77 39.96C181.61 39.7733 181.477 39.5733 181.37 39.36C180.09 37.0667 180.13 34.3733 181.49 31.28C182.13 29.8933 182.984 28.6667 184.05 27.6C185.064 26.5867 186.117 25.8267 187.21 25.32C188.277 24.7867 189.344 24.4667 190.41 24.36ZM191.65 26.28C191.09 26.2 190.637 26.1867 190.29 26.24C188.984 26.48 187.904 27.12 187.05 28.16C186.277 29.0933 185.61 30.6533 185.05 32.84C184.997 33.0267 184.944 33.2133 184.89 33.4C184.464 35.16 184.25 36.4667 184.25 37.32C184.25 37.88 184.277 38.2533 184.33 38.44C184.65 39.6933 185.424 40.3867 186.65 40.52C187.184 40.5733 187.744 40.5067 188.33 40.32C189.744 39.8667 190.864 38.84 191.69 37.24C192.144 36.4133 192.597 35.0533 193.05 33.16C193.637 30.84 193.797 29.1867 193.53 28.2C193.264 27.2133 192.637 26.5733 191.65 26.28ZM203.8 24.4C204.253 24.2667 204.827 24.28 205.52 24.44C205.947 24.5467 206.373 24.7467 206.8 25.04C207.227 25.36 207.533 25.6933 207.72 26.04L207.88 26.28L208.24 25.92C208.747 25.4667 209.253 25.1067 209.76 24.84C210.72 24.36 211.707 24.2 212.72 24.36C214.507 24.6533 215.627 25.4933 216.08 26.88C216.213 27.28 216.267 27.7067 216.24 28.16C216.16 29.1733 215.813 29.92 215.2 30.4C214.293 31.0667 213.453 31.1867 212.68 30.76C212.36 30.6 212.133 30.36 212 30.04C211.92 29.9067 211.867 29.6933 211.84 29.4C211.84 28.9467 211.933 28.5333 212.12 28.16C212.413 27.6267 212.773 27.2667 213.2 27.08C213.36 27 213.44 26.9333 213.44 26.88C213.36 26.72 213.107 26.56 212.68 26.4C212.12 26.16 211.533 26.1333 210.92 26.32C209.96 26.6667 209.04 27.7067 208.16 29.44C208.053 29.6533 207.52 31.64 206.56 35.4C205.6 39.2667 205.04 41.32 204.88 41.56C204.853 41.6133 204.787 41.6933 204.68 41.8C204.12 42.36 203.467 42.56 202.72 42.4C202.053 42.2133 201.693 41.8 201.64 41.16C201.64 40.92 202.147 38.76 203.16 34.68C204.2 30.6533 204.747 28.4533 204.8 28.08C204.88 27.3867 204.853 26.88 204.72 26.56C204.613 26.3733 204.44 26.2533 204.2 26.2C204.04 26.2 203.907 26.24 203.8 26.32C203.533 26.5067 203.28 26.8267 203.04 27.28C202.773 27.92 202.44 29 202.04 30.52C201.96 30.68 201.907 30.7733 201.88 30.8C201.827 30.8533 201.507 30.88 200.92 30.88H200.04L199.92 30.76C199.84 30.68 199.8 30.5733 199.8 30.44L200.04 29.48C200.733 27.16 201.587 25.64 202.6 24.92C203.027 24.6533 203.427 24.48 203.8 24.4ZM227.395 24.36C228.222 24.2533 228.968 24.28 229.635 24.44C230.035 24.5467 230.448 24.6933 230.875 24.88C231.835 25.36 232.448 26.0667 232.715 27C232.768 27.1867 232.795 27.4933 232.795 27.92C232.795 28.4 232.768 28.7333 232.715 28.92C232.475 29.72 232.088 30.4133 231.555 31C230.808 31.7467 229.688 32.32 228.195 32.72C226.968 33.0133 225.302 33.2 223.195 33.28H222.235L222.155 33.52C221.888 34.9867 221.755 35.6933 221.755 35.64C221.622 36.6 221.608 37.4533 221.715 38.2C222.008 39.6133 222.795 40.3867 224.075 40.52C224.182 40.5467 224.302 40.56 224.435 40.56C225.822 40.56 227.155 40.1733 228.435 39.4C229.075 39.0267 229.728 38.5067 230.395 37.84C230.875 37.36 231.208 37.1467 231.395 37.2L231.955 37.76C232.328 38.1867 232.475 38.4933 232.395 38.68C232.262 38.92 231.808 39.4 231.035 40.12C229.755 41.1067 228.262 41.7867 226.555 42.16C225.888 42.32 225.102 42.4 224.195 42.4C223.368 42.4 222.675 42.3067 222.115 42.12C221.315 41.8267 220.595 41.3733 219.955 40.76C219.475 40.2533 219.102 39.7067 218.835 39.12C218.328 38.1333 218.035 36.96 217.955 35.6C217.875 32.88 218.662 30.48 220.315 28.4C220.822 27.76 221.382 27.2133 221.995 26.76C223.595 25.4533 225.395 24.6533 227.395 24.36ZM228.715 26.28C227.595 26.0667 226.488 26.3333 225.395 27.08C224.435 27.6933 223.688 28.68 223.155 30.04C222.862 30.76 222.715 31.2 222.715 31.36C222.715 31.4667 223.675 31.44 225.595 31.28C225.782 31.28 225.942 31.2667 226.075 31.24C227.835 31.0533 229.048 30.56 229.715 29.76C230.008 29.3867 230.195 28.9467 230.275 28.44C230.408 27.48 230.062 26.8133 229.235 26.44C229.075 26.36 228.902 26.3067 228.715 26.28Z" fill="black"/>
</svg>
